<?xml version="1.0" encoding="utf-8"?>
<!-- Generator: Adobe Illustrator 21.1.0, SVG Export Plug-In . SVG Version: 6.00 Build 0)  -->
<svg version="1.1" id="Layer_1" xmlns="http://www.w3.org/2000/svg" xmlns:xlink="http://www.w3.org/1999/xlink" x="0px" y="0px"
	 viewBox="0 0 28.91406 28.91406" style="enable-background:new 0 0 28.91406 28.91406;" xml:space="preserve">
<style type="text/css">
	.st0{clip-path:url(#SVGID_2_);}
	.st1{fill:#FFFFFF;}
	.st2{fill:#0038B8;}
	.st3{clip-path:url(#SVGID_2_);fill:#0038B8;}
	.st4{fill:#C6C5C5;}
</style>
<g>
	<g>
		<defs>
			<circle id="SVGID_1_" cx="14.45713" cy="14.45714" r="14.20702"/>
		</defs>
		<clipPath id="SVGID_2_">
			<use xlink:href="#SVGID_1_"  style="overflow:visible;"/>
		</clipPath>
		<g class="st0">
			<rect x="-4.34814" y="-0.67139" class="st1" width="36" height="31"/>
		</g>
		<g class="st0">
			<rect x="0.95713" y="2.32861" class="st2" width="27" height="4"/>
		</g>
		<g class="st0">
			<rect x="0.95713" y="22.32861" class="st2" width="27" height="4"/>
		</g>
		<path class="st3" d="M18.31348,14.32861l1.73193-3h-3.46436l-2.12402-3.6792l-2.12402,3.6792H8.86865l1.73242,3l-1.73242,3
			h3.46436l2.12402,3.6792l2.12402-3.6792h3.46436L18.31348,14.32861z M18.31348,12.32861l-0.57764,1l-0.57715-1H18.31348z
			 M17.15869,14.32861l-1.15479,2h-3.09375l-1.15479-2l1.15479-2h3.09375L17.15869,14.32861z M14.45703,9.64941l0.96973,1.6792
			h-1.93896L14.45703,9.64941z M10.60107,12.32861h1.1543l-0.57715,1L10.60107,12.32861z M10.60107,16.32861l0.57715-1l0.57715,1
			H10.60107z M14.45703,19.00781l-0.96924-1.6792h1.93896L14.45703,19.00781z M17.73584,15.32861l0.57764,1h-1.15479
			L17.73584,15.32861z"/>
	</g>
	<path class="st4" d="M14.45703,0C6.48535,0,0,6.48535,0,14.45703s6.48535,14.45703,14.45703,14.45703
		s14.45703-6.48535,14.45703-14.45703S22.42871,0,14.45703,0z M14.45703,28.41406C6.76123,28.41406,0.5,22.15283,0.5,14.45703
		S6.76123,0.5,14.45703,0.5s13.95703,6.26123,13.95703,13.95703S22.15283,28.41406,14.45703,28.41406z"/>
</g>
</svg>
