<svg id="Layer_1" data-name="Layer 1" xmlns="http://www.w3.org/2000/svg" xmlns:xlink="http://www.w3.org/1999/xlink" viewBox="0 0 28.5 28.5"><defs><style>.cls-1,.cls-8{fill:none;}.cls-2{clip-path:url(#clip-path);}.cls-3{clip-path:url(#clip-path-2);}.cls-4{clip-path:url(#clip-path-3);}.cls-5{fill:#fff;}.cls-6{fill:#a62234;}.cls-7{fill:#3c3b6e;}.cls-8{stroke:#cccccb;stroke-miterlimit:10;stroke-width:0.5px;}</style><clipPath id="clip-path"><circle class="cls-1" cx="14.25" cy="14.25" r="14"/></clipPath><clipPath id="clip-path-2"><rect class="cls-1" x="-5.94" y="0.25" width="53.2" height="28"/></clipPath><clipPath id="clip-path-3"><rect class="cls-1" x="-5.94" y="0.25" width="53.2" height="28"/></clipPath></defs><title>ENG_BTN</title><g class="cls-2"><g class="cls-3"><g class="cls-4"><rect class="cls-5" x="-5.94" y="0.25" width="53.2" height="28"/><rect class="cls-6" x="-5.94" y="0.25" width="53.2" height="2.15"/><rect class="cls-6" x="-5.94" y="4.56" width="53.2" height="2.15"/><rect class="cls-6" x="-5.94" y="8.87" width="53.2" height="2.15"/><rect class="cls-6" x="-5.94" y="13.17" width="53.2" height="2.15"/><rect class="cls-6" x="-5.94" y="17.48" width="53.2" height="2.15"/><rect class="cls-6" x="-5.94" y="21.79" width="53.2" height="2.15"/><rect class="cls-6" x="-5.94" y="26.1" width="53.2" height="2.15"/><rect class="cls-7" x="-5.94" y="0.25" width="21.28" height="15.07"/></g><polyline class="cls-5" points="-0.68 1.47 0.23 1.47 -0.51 2.01"/><polyline class="cls-5" points="3.16 1.91 2.43 2.44 2.71 1.58"/><polyline class="cls-5" points="2.85 2.01 2.12 1.47 3.02 1.47"/><polyline class="cls-5" points="2.65 1.74 2.94 0.88 3.22 1.74"/><polyline class="cls-5" points="2.85 1.47 3.76 1.47 3.02 2.01"/><polyline class="cls-5" points="3.16 1.58 3.44 2.44 2.71 1.91"/><polyline class="cls-5" points="6.69 1.91 5.96 2.44 6.24 1.58"/><polyline class="cls-5" points="6.38 2.01 5.64 1.47 6.55 1.47"/><polyline class="cls-5" points="6.18 1.74 6.46 0.88 6.74 1.74"/><polyline class="cls-5" points="6.38 1.47 7.28 1.47 6.55 2.01"/><polyline class="cls-5" points="6.69 1.58 6.97 2.44 6.24 1.91"/><polyline class="cls-5" points="10.22 1.91 9.48 2.44 9.77 1.58"/><polyline class="cls-5" points="9.9 2.01 9.17 1.47 10.08 1.47"/><polyline class="cls-5" points="9.71 1.74 9.99 0.88 10.27 1.74"/><polyline class="cls-5" points="9.9 1.47 10.81 1.47 10.08 2.01"/><polyline class="cls-5" points="10.22 1.58 10.5 2.44 9.77 1.91"/><polyline class="cls-5" points="13.75 1.91 13.01 2.44 13.29 1.58"/><polyline class="cls-5" points="13.43 2.01 12.7 1.47 13.61 1.47"/><polyline class="cls-5" points="13.24 1.74 13.52 0.88 13.8 1.74"/><polyline class="cls-5" points="13.43 1.47 14.34 1.47 13.61 2.01"/><polyline class="cls-5" points="13.75 1.58 14.03 2.44 13.29 1.91"/><polyline class="cls-5" points="1.4 3.42 0.67 3.95 0.94 3.09"/><polyline class="cls-5" points="1.08 3.52 0.35 2.99 1.26 2.99"/><polyline class="cls-5" points="0.89 3.25 1.17 2.39 1.45 3.25"/><polyline class="cls-5" points="1.08 2.99 1.99 2.99 1.26 3.52"/><polyline class="cls-5" points="1.4 3.09 1.68 3.95 0.94 3.42"/><polyline class="cls-5" points="4.93 3.42 4.19 3.95 4.47 3.09"/><polyline class="cls-5" points="4.61 3.52 3.88 2.99 4.79 2.99"/><polyline class="cls-5" points="4.42 3.25 4.7 2.39 4.98 3.25"/><polyline class="cls-5" points="4.61 2.99 5.52 2.99 4.79 3.52"/><polyline class="cls-5" points="4.93 3.09 5.21 3.95 4.47 3.42"/><polyline class="cls-5" points="8.45 3.42 7.72 3.95 8 3.09"/><polyline class="cls-5" points="8.14 3.52 7.41 2.99 8.31 2.99"/><polyline class="cls-5" points="7.95 3.25 8.23 2.39 8.51 3.25"/><polyline class="cls-5" points="8.14 2.99 9.05 2.99 8.31 3.52"/><polyline class="cls-5" points="8.45 3.09 8.73 3.95 8 3.42"/><polyline class="cls-5" points="11.98 3.42 11.25 3.95 11.53 3.09"/><polyline class="cls-5" points="11.67 3.52 10.94 2.99 11.84 2.99"/><polyline class="cls-5" points="11.47 3.25 11.76 2.39 12.04 3.25"/><polyline class="cls-5" points="11.67 2.99 12.58 2.99 11.84 3.52"/><polyline class="cls-5" points="11.98 3.09 12.26 3.95 11.53 3.42"/><polyline class="cls-5" points="-0.68 4.5 0.23 4.5 -0.51 5.03"/><polyline class="cls-5" points="3.16 4.93 2.43 5.46 2.71 4.6"/><polyline class="cls-5" points="2.85 5.03 2.12 4.5 3.02 4.5"/><polyline class="cls-5" points="2.65 4.76 2.94 3.9 3.22 4.76"/><polyline class="cls-5" points="2.85 4.5 3.76 4.5 3.02 5.03"/><polyline class="cls-5" points="3.16 4.6 3.44 5.46 2.71 4.93"/><polyline class="cls-5" points="6.69 4.93 5.96 5.46 6.24 4.6"/><polyline class="cls-5" points="6.38 5.03 5.64 4.5 6.55 4.5"/><polyline class="cls-5" points="6.18 4.76 6.46 3.9 6.74 4.76"/><polyline class="cls-5" points="6.38 4.5 7.28 4.5 6.55 5.03"/><polyline class="cls-5" points="6.69 4.6 6.97 5.46 6.24 4.93"/><polyline class="cls-5" points="10.22 4.93 9.48 5.46 9.77 4.6"/><polyline class="cls-5" points="9.9 5.03 9.17 4.5 10.08 4.5"/><polyline class="cls-5" points="9.71 4.76 9.99 3.9 10.27 4.76"/><polyline class="cls-5" points="9.9 4.5 10.81 4.5 10.08 5.03"/><polyline class="cls-5" points="10.22 4.6 10.5 5.46 9.77 4.93"/><polyline class="cls-5" points="13.75 4.93 13.01 5.46 13.29 4.6"/><polyline class="cls-5" points="13.43 5.03 12.7 4.5 13.61 4.5"/><polyline class="cls-5" points="13.24 4.76 13.52 3.9 13.8 4.76"/><polyline class="cls-5" points="13.43 4.5 14.34 4.5 13.61 5.03"/><polyline class="cls-5" points="13.75 4.6 14.03 5.46 13.29 4.93"/><polyline class="cls-5" points="1.4 6.44 0.67 6.97 0.94 6.11"/><polyline class="cls-5" points="1.08 6.54 0.35 6.01 1.26 6.01"/><polyline class="cls-5" points="0.89 6.28 1.17 5.41 1.45 6.28"/><polyline class="cls-5" points="1.08 6.01 1.99 6.01 1.26 6.54"/><polyline class="cls-5" points="1.4 6.11 1.68 6.97 0.94 6.44"/><polyline class="cls-5" points="4.93 6.44 4.19 6.97 4.47 6.11"/><polyline class="cls-5" points="4.61 6.54 3.88 6.01 4.79 6.01"/><polyline class="cls-5" points="4.42 6.28 4.7 5.41 4.98 6.28"/><polyline class="cls-5" points="4.61 6.01 5.52 6.01 4.79 6.54"/><polyline class="cls-5" points="4.93 6.11 5.21 6.97 4.47 6.44"/><polyline class="cls-5" points="8.45 6.44 7.72 6.97 8 6.11"/><polyline class="cls-5" points="8.14 6.54 7.41 6.01 8.31 6.01"/><polyline class="cls-5" points="7.95 6.28 8.23 5.41 8.51 6.28"/><polyline class="cls-5" points="8.14 6.01 9.05 6.01 8.31 6.54"/><polyline class="cls-5" points="8.45 6.11 8.73 6.97 8 6.44"/><polyline class="cls-5" points="11.98 6.44 11.25 6.97 11.53 6.11"/><polyline class="cls-5" points="11.67 6.54 10.94 6.01 11.84 6.01"/><polyline class="cls-5" points="11.47 6.28 11.76 5.41 12.04 6.28"/><polyline class="cls-5" points="11.67 6.01 12.58 6.01 11.84 6.54"/><polyline class="cls-5" points="11.98 6.11 12.26 6.97 11.53 6.44"/><polyline class="cls-5" points="-0.68 7.52 0.23 7.52 -0.51 8.05"/><polyline class="cls-5" points="3.16 7.95 2.43 8.49 2.71 7.62"/><polyline class="cls-5" points="2.85 8.05 2.12 7.52 3.02 7.52"/><polyline class="cls-5" points="2.65 7.79 2.94 6.93 3.22 7.79"/><polyline class="cls-5" points="2.85 7.52 3.76 7.52 3.02 8.05"/><polyline class="cls-5" points="3.16 7.62 3.44 8.49 2.71 7.95"/><polyline class="cls-5" points="6.69 7.95 5.96 8.49 6.24 7.62"/><polyline class="cls-5" points="6.38 8.05 5.64 7.52 6.55 7.52"/><polyline class="cls-5" points="6.18 7.79 6.46 6.93 6.74 7.79"/><polyline class="cls-5" points="6.38 7.52 7.28 7.52 6.55 8.05"/><polyline class="cls-5" points="6.69 7.62 6.97 8.49 6.24 7.95"/><polyline class="cls-5" points="10.22 7.95 9.48 8.49 9.77 7.62"/><polyline class="cls-5" points="9.9 8.05 9.17 7.52 10.08 7.52"/><polyline class="cls-5" points="9.71 7.79 9.99 6.93 10.27 7.79"/><polyline class="cls-5" points="9.9 7.52 10.81 7.52 10.08 8.05"/><polyline class="cls-5" points="10.22 7.62 10.5 8.49 9.77 7.95"/><polyline class="cls-5" points="13.75 7.95 13.01 8.49 13.29 7.62"/><polyline class="cls-5" points="13.43 8.05 12.7 7.52 13.61 7.52"/><polyline class="cls-5" points="13.24 7.79 13.52 6.93 13.8 7.79"/><polyline class="cls-5" points="13.43 7.52 14.34 7.52 13.61 8.05"/><polyline class="cls-5" points="13.75 7.62 14.03 8.49 13.29 7.95"/><polyline class="cls-5" points="1.4 9.46 0.67 10 0.94 9.14"/><polyline class="cls-5" points="1.08 9.57 0.35 9.03 1.26 9.03"/><polyline class="cls-5" points="0.89 9.3 1.17 8.44 1.45 9.3"/><polyline class="cls-5" points="1.08 9.03 1.99 9.03 1.26 9.57"/><polyline class="cls-5" points="1.4 9.14 1.68 10 0.94 9.46"/><polyline class="cls-5" points="4.93 9.46 4.19 10 4.47 9.14"/><polyline class="cls-5" points="4.61 9.57 3.88 9.03 4.79 9.03"/><polyline class="cls-5" points="4.42 9.3 4.7 8.44 4.98 9.3"/><polyline class="cls-5" points="4.61 9.03 5.52 9.03 4.79 9.57"/><polyline class="cls-5" points="4.93 9.14 5.21 10 4.47 9.46"/><polyline class="cls-5" points="8.45 9.46 7.72 10 8 9.14"/><polyline class="cls-5" points="8.14 9.57 7.41 9.03 8.31 9.03"/><polyline class="cls-5" points="7.95 9.3 8.23 8.44 8.51 9.3"/><polyline class="cls-5" points="8.14 9.03 9.05 9.03 8.31 9.57"/><polyline class="cls-5" points="8.45 9.14 8.73 10 8 9.46"/><polyline class="cls-5" points="11.98 9.46 11.25 10 11.53 9.14"/><polyline class="cls-5" points="11.67 9.57 10.94 9.03 11.84 9.03"/><polyline class="cls-5" points="11.47 9.3 11.76 8.44 12.04 9.3"/><polyline class="cls-5" points="11.67 9.03 12.58 9.03 11.84 9.57"/><polyline class="cls-5" points="11.98 9.14 12.26 10 11.53 9.46"/><polyline class="cls-5" points="-0.68 10.55 0.23 10.55 -0.51 11.08"/><polyline class="cls-5" points="3.16 10.98 2.43 11.51 2.71 10.65"/><polyline class="cls-5" points="2.85 11.08 2.12 10.55 3.02 10.55"/><polyline class="cls-5" points="2.65 10.81 2.94 9.95 3.22 10.81"/><polyline class="cls-5" points="2.85 10.55 3.76 10.55 3.02 11.08"/><polyline class="cls-5" points="3.16 10.65 3.44 11.51 2.71 10.98"/><polyline class="cls-5" points="6.69 10.98 5.96 11.51 6.24 10.65"/><polyline class="cls-5" points="6.38 11.08 5.64 10.55 6.55 10.55"/><polyline class="cls-5" points="6.18 10.81 6.46 9.95 6.74 10.81"/><polyline class="cls-5" points="6.38 10.55 7.28 10.55 6.55 11.08"/><polyline class="cls-5" points="6.69 10.65 6.97 11.51 6.24 10.98"/><polyline class="cls-5" points="10.22 10.98 9.48 11.51 9.77 10.65"/><polyline class="cls-5" points="9.9 11.08 9.17 10.55 10.08 10.55"/><polyline class="cls-5" points="9.71 10.81 9.99 9.95 10.27 10.81"/><polyline class="cls-5" points="9.9 10.55 10.81 10.55 10.08 11.08"/><polyline class="cls-5" points="10.22 10.65 10.5 11.51 9.77 10.98"/><polyline class="cls-5" points="13.75 10.98 13.01 11.51 13.29 10.65"/><polyline class="cls-5" points="13.43 11.08 12.7 10.55 13.61 10.55"/><polyline class="cls-5" points="13.24 10.81 13.52 9.95 13.8 10.81"/><polyline class="cls-5" points="13.43 10.55 14.34 10.55 13.61 11.08"/><polyline class="cls-5" points="13.75 10.65 14.03 11.51 13.29 10.98"/><polyline class="cls-5" points="1.4 12.49 0.67 13.02 0.94 12.16"/><polyline class="cls-5" points="1.08 12.59 0.35 12.06 1.26 12.06"/><polyline class="cls-5" points="0.89 12.32 1.17 11.46 1.45 12.32"/><polyline class="cls-5" points="1.08 12.06 1.99 12.06 1.26 12.59"/><polyline class="cls-5" points="1.4 12.16 1.68 13.02 0.94 12.49"/><polyline class="cls-5" points="4.93 12.49 4.19 13.02 4.47 12.16"/><polyline class="cls-5" points="4.61 12.59 3.88 12.06 4.79 12.06"/><polyline class="cls-5" points="4.42 12.32 4.7 11.46 4.98 12.32"/><polyline class="cls-5" points="4.61 12.06 5.52 12.06 4.79 12.59"/><polyline class="cls-5" points="4.93 12.16 5.21 13.02 4.47 12.49"/><polyline class="cls-5" points="8.45 12.49 7.72 13.02 8 12.16"/><polyline class="cls-5" points="8.14 12.59 7.41 12.06 8.31 12.06"/><polyline class="cls-5" points="7.95 12.32 8.23 11.46 8.51 12.32"/><polyline class="cls-5" points="8.14 12.06 9.05 12.06 8.31 12.59"/><polyline class="cls-5" points="8.45 12.16 8.73 13.02 8 12.49"/><polyline class="cls-5" points="11.98 12.49 11.25 13.02 11.53 12.16"/><polyline class="cls-5" points="11.67 12.59 10.94 12.06 11.84 12.06"/><polyline class="cls-5" points="11.47 12.32 11.76 11.46 12.04 12.32"/><polyline class="cls-5" points="11.67 12.06 12.58 12.06 11.84 12.59"/><polyline class="cls-5" points="11.98 12.16 12.26 13.02 11.53 12.49"/><polyline class="cls-5" points="-0.68 13.57 0.23 13.57 -0.51 14.1"/><polyline class="cls-5" points="3.16 14 2.43 14.53 2.71 13.67"/><polyline class="cls-5" points="2.85 14.1 2.12 13.57 3.02 13.57"/><polyline class="cls-5" points="2.65 13.84 2.94 12.97 3.22 13.84"/><polyline class="cls-5" points="2.85 13.57 3.76 13.57 3.02 14.1"/><polyline class="cls-5" points="3.16 13.67 3.44 14.53 2.71 14"/><polyline class="cls-5" points="6.69 14 5.96 14.53 6.24 13.67"/><polyline class="cls-5" points="6.38 14.1 5.64 13.57 6.55 13.57"/><polyline class="cls-5" points="6.18 13.84 6.46 12.97 6.74 13.84"/><polyline class="cls-5" points="6.38 13.57 7.28 13.57 6.55 14.1"/><polyline class="cls-5" points="6.69 13.67 6.97 14.53 6.24 14"/><polyline class="cls-5" points="10.22 14 9.48 14.53 9.77 13.67"/><polyline class="cls-5" points="9.9 14.1 9.17 13.57 10.08 13.57"/><polyline class="cls-5" points="9.71 13.84 9.99 12.97 10.27 13.84"/><polyline class="cls-5" points="9.9 13.57 10.81 13.57 10.08 14.1"/><polyline class="cls-5" points="10.22 13.67 10.5 14.53 9.77 14"/><polyline class="cls-5" points="13.75 14 13.01 14.53 13.29 13.67"/><polyline class="cls-5" points="13.43 14.1 12.7 13.57 13.61 13.57"/><polyline class="cls-5" points="13.24 13.84 13.52 12.97 13.8 13.84"/><polyline class="cls-5" points="13.43 13.57 14.34 13.57 13.61 14.1"/><polyline class="cls-5" points="13.75 13.67 14.03 14.53 13.29 14"/></g></g><circle class="cls-8" cx="14.25" cy="14.25" r="14"/></svg>