<svg id="Layer_1" data-name="Layer 1" xmlns="http://www.w3.org/2000/svg" viewBox="0 0 138 55.06"><defs><style>.cls-1{fill:#527ebc;}.cls-2{fill:#ee6351;}.cls-3{fill:#fff;}.cls-4{fill:#fac26d;}</style></defs><title>Logo_Mini</title><path class="cls-1" d="M33.29,10H11.8A11.8,11.8,0,0,0,0,21.76V43.26a11.8,11.8,0,0,0,11.8,11.8H45.09V21.76A11.8,11.8,0,0,0,33.29,10Z"/><path class="cls-2" d="M125.45,0H62.9A12.55,12.55,0,0,0,50.35,12.55V55.06h75.1A12.55,12.55,0,0,0,138,42.51v-30A12.55,12.55,0,0,0,125.45,0Z"/><path class="cls-3" d="M80.55,17.67c0-.41-4.76-1.8-5.07-1.8s-8.57,10.27-8.57,10.27.37-10.06.17-10.16-5.68-.31-6.09.14,0,23.66.27,23.87a31,31,0,0,0,5.85-.1l0-6.32,2.55-2.86c.71,1.19,5,9.18,5.51,9.59,1.09.27,5.61-1.39,5.64-1.67a131.69,131.69,0,0,0-6.83-12S80.58,18,80.55,17.67Z"/><path class="cls-3" d="M83.47,16c-.2,4.59-.37,21.11-.2,23.8,2.72.27,16.25.2,16,0a19.73,19.73,0,0,0,0-5.1c-1-.07-7,0-10,0,0-1.19,0-2.82,0-4.35a65.21,65.21,0,0,0,8-.07c0-.14.27-4.59-.1-4.9a70.72,70.72,0,0,0-7.92-.2l-.07-4.15c2.79.1,9.59.07,10.54,0a21.42,21.42,0,0,0-.07-5.17C99.25,15.76,86.63,15.83,83.47,16Z"/><path class="cls-3" d="M126.34,15.83c-.68-.17-5.51-.14-5.85.2-.61.54-3.26,10.23-4.56,15.67h-.17c-1.09-4.9-3.91-15-4.52-15.94-.75-.17-5.44-.27-5.64.31-.44,1.39-3.88,21.35-4,23.12,0,.37,4.59.88,5.68.78.48-2,1.56-10.91,2.11-14.75h.14c.82,3.5,3.4,13.63,3.81,14.55.2.27,4.35.27,4.9.07.82-2.35,3.06-10.61,4-14.55h.14c.48,4.39,1.63,14,1.8,14.82.07.27,5.3-.17,5.71-.82C129.91,38,126.58,16,126.34,15.83Z"/><path class="cls-4" d="M8.79,25.08H7.14V23.68h4v1.39h-.6V31H8.79Z"/><path class="cls-4" d="M15,23.68c2,0,2.14,1.3,2.14,3.15V31H15.37V26.83c0-1.08,0-1.75-.67-1.75h-.56V31H12.41v-7.3Z"/><path class="cls-4" d="M22,31,20.22,27.1c-.2,0-.2.26-.2.71V31H18.33V28c0-.92.36-1.73,1.41-1.85l-1.17-2.42h1.69L22,27.32c.22,0,.24-.21.24-.82V23.68H23.9v2.57c0,1.18-.31,1.91-1.43,2.1L23.75,31Z"/><path class="cls-4" d="M30.37,31H28.63l1.43-5.91H27.92V22.19h1.66v1.5h2.56Z"/><path class="cls-4" d="M34.43,23.68c1.63,0,2.23.56,2.23,2.54v2.22c0,2-.59,2.54-2.23,2.54h-1.5v-1.4H34c.64,0,.89-.07.89-1.13V26.26c0-.77-.18-1.19-.83-1.19H32.94V23.68Z"/><path class="cls-3" d="M10,35.13v7.3H8.25v-7.3Z"/><path class="cls-3" d="M13.53,41h.73V37.75c0-.82,0-1.23-.65-1.23h-.2l-.82,5.91H10.91l.85-5.91h-.54V35.13h2.71c1.62,0,2.07.74,2.05,3.11v4.18H13.53Z"/><path class="cls-3" d="M19,35.13v7.3H17.18v-7.3Z"/><path class="cls-3" d="M24.89,39.27c0,1.86-.12,3.16-2.1,3.16h-.31V41h.13c.55,0,.54-.42.54-1.14V36.52H20.23V35.13h4.66Zm-4.64-1.49H22v6.44H20.25Z"/><path class="cls-3" d="M28.34,41h.73V37.75c0-.82,0-1.23-.65-1.23h-.2l-.82,5.91H25.72l.85-5.91H26V35.13h2.71c1.62,0,2.07.74,2.05,3.11v4.18H28.34Z"/><path class="cls-3" d="M34.14,41h.73V37.75c0-.82,0-1.23-.65-1.23H34l-.82,5.91H31.51l.85-5.91h-.54V35.13h2.71c1.62,0,2.07.74,2.05,3.11v4.18H34.14Z"/></svg>