<svg id="Layer_1" data-name="Layer 1" xmlns="http://www.w3.org/2000/svg" viewBox="0 0 191.96 76.58"><defs><style>.cls-1{fill:#527ebc;}.cls-2{fill:#ee6351;}.cls-3{fill:#fff;}.cls-4{fill:#fac26d;}</style></defs><title>Logo_Large</title><path class="cls-1" d="M46.31,13.86H16.41A16.41,16.41,0,0,0,0,30.28v29.9A16.41,16.41,0,0,0,16.41,76.58H62.72V30.28A16.41,16.41,0,0,0,46.31,13.86Z"/><path class="cls-2" d="M174.51,0h-87A17.46,17.46,0,0,0,70,17.46V76.58H174.51A17.46,17.46,0,0,0,192,59.13V17.46A17.46,17.46,0,0,0,174.51,0Z"/><path class="cls-3" d="M112,24.57c0-.57-6.62-2.51-7-2.51S93.08,36.35,93.08,36.35s.52-14,.24-14.14-7.9-.43-8.46.19,0,32.91.38,33.2,7.28.09,8.13-.14l0-8.8,3.55-4c1,1.66,7,12.77,7.66,13.34,1.51.38,7.8-1.94,7.85-2.32A183.18,183.18,0,0,0,102.87,37S112.09,25.1,112,24.57Z"/><path class="cls-3" d="M116.11,22.3c-.28,6.38-.52,29.37-.28,33.1,3.78.38,22.6.28,22.23,0a27.44,27.44,0,0,0,0-7.09c-1.32-.09-9.69,0-14,0,0-1.66,0-3.93,0-6.05,4.49.14,11.16.14,11.16-.09s.38-6.38-.14-6.81c-.28-.24-6.86-.33-11-.28L124,29.4c3.88.14,13.34.09,14.66,0a29.81,29.81,0,0,0-.09-7.19C138.05,21.93,120.51,22,116.11,22.3Z"/><path class="cls-3" d="M175.74,22c-.95-.24-7.66-.19-8.13.28-.85.76-4.54,14.23-6.34,21.8H161c-1.51-6.81-5.44-20.86-6.29-22.18-1-.24-7.57-.38-7.85.43-.61,1.94-5.39,29.7-5.58,32.16,0,.52,6.38,1.23,7.9,1.09.66-2.74,2.18-15.18,2.93-20.52h.19c1.13,4.87,4.73,19,5.3,20.24.28.38,6.05.38,6.81.09,1.14-3.26,4.26-14.75,5.63-20.24h.19c.66,6.1,2.27,19.44,2.51,20.62.09.38,7.38-.24,7.94-1.13C180.71,52.9,176.07,22.21,175.74,22Z"/><polygon class="cls-4" points="9.93 34.88 12.22 34.88 12.22 43.1 14.67 43.1 14.67 34.88 15.51 34.88 15.51 32.94 9.93 32.94 9.93 34.88"/><path class="cls-4" d="M20.83,32.94H17.26V43.1h2.41V34.88h.78c.92,0,.94.93.94,2.43l0,5.78h2.43V37.33C23.81,34.75,23.59,32.94,20.83,32.94Z"/><path class="cls-4" d="M30.91,36.87c0,.84,0,1.1-.34,1.14l-2.4-5.06H25.83l1.63,3.37c-1.47.16-2,1.3-2,2.57V43.1h2.35V38.68c0-.62,0-1,.27-1l2.55,5.4H33l-1.79-3.67c1.57-.26,2-1.27,2-2.91V32.94H30.91Z"/><polygon class="cls-4" points="41.15 30.86 38.84 30.86 38.84 34.88 41.8 34.88 39.82 43.1 42.25 43.1 44.71 32.94 41.15 32.94 41.15 30.86"/><path class="cls-4" d="M47.9,32.94H45.82v1.94h1.55c.9,0,1.16.58,1.16,1.65v3.05c0,1.47-.34,1.57-1.23,1.57H45.82V43.1H47.9c2.27,0,3.1-.77,3.1-3.53V36.47C51,33.73,50.17,32.94,47.9,32.94Z"/><rect class="cls-3" x="11.47" y="48.87" width="2.49" height="10.15"/><path class="cls-3" d="M19.37,48.87H15.61V50.8h.75L15.17,59h2.35l1.14-8.22h.28c1,0,.9.57.9,1.71v4.56h-1V59h3.4V53.2C22.25,49.89,21.62,48.87,19.37,48.87Z"/><rect class="cls-3" x="23.89" y="48.87" width="2.49" height="10.15"/><path class="cls-3" d="M28.14,50.8H32.2v4.68c0,1,0,1.59-.75,1.59h-.18V59h.43c2.76,0,2.92-1.8,2.92-4.4V48.87H28.14Z"/><rect class="cls-3" x="28.17" y="52.55" width="2.39" height="8.96"/><path class="cls-3" d="M40,48.87H36.21V50.8H37L35.78,59h2.35l1.14-8.22h.28c1,0,.9.57.9,1.71v4.56h-1V59h3.4V53.2C42.85,49.89,42.22,48.87,40,48.87Z"/><path class="cls-3" d="M48,48.87H44.27V50.8H45L43.84,59h2.35l1.14-8.22h.28c1,0,.9.57.9,1.71v4.56h-1V59h3.4V53.2C50.92,49.89,50.28,48.87,48,48.87Z"/></svg>