<svg id="Layer_1" data-name="Layer 1" xmlns="http://www.w3.org/2000/svg" viewBox="0 0 66 66"><defs><style>.cls-1{fill:#f16351;}.cls-2{fill:#fff;}</style></defs><title>Logo_Minimized</title><path class="cls-1" d="M17.27,0H48.73A17.27,17.27,0,0,1,66,17.27V48.73A17.27,17.27,0,0,1,48.73,66H0V17.27A17.27,17.27,0,0,1,17.27,0Z"/><path class="cls-2" d="M23.46,27.23c0-.26-3.06-1.16-3.26-1.16s-5.51,6.6-5.51,6.6.24-6.47.11-6.53-3.65-.2-3.91.09,0,15.21.17,15.34a20,20,0,0,0,3.76-.07l0-4.06,1.64-1.84c.46.76,3.23,5.9,3.54,6.16a9,9,0,0,0,3.63-1.07A84.6,84.6,0,0,0,19.22,33S23.48,27.47,23.46,27.23Z"/><path class="cls-2" d="M25.78,26.18c-.13,3-.24,13.57-.13,15.3,1.75.17,10.44.13,10.27,0a12.68,12.68,0,0,0,0-3.28c-.61,0-4.48,0-6.45,0,0-.76,0-1.81,0-2.8a41.9,41.9,0,0,0,5.16,0c0-.09.17-2.95-.07-3.15a45.4,45.4,0,0,0-5.09-.13l0-2.67c1.79.07,6.16,0,6.77,0a13.76,13.76,0,0,0,0-3.32C35.92,26,27.81,26,25.78,26.18Z"/><path class="cls-2" d="M53.77,26a14.1,14.1,0,0,0-3.76.13c-.39.35-2.1,6.58-2.93,10.07H47A92.34,92.34,0,0,0,44.07,26c-.48-.11-3.5-.17-3.63.2-.28.9-2.49,13.72-2.58,14.86,0,.24,2.95.57,3.65.5.31-1.27,1-7,1.35-9.48H43c.52,2.25,2.19,8.76,2.45,9.35a10.72,10.72,0,0,0,3.15,0c.52-1.51,2-6.82,2.6-9.35h.09c.31,2.82,1,9,1.16,9.53,0,.18,3.41-.11,3.67-.52C56.06,40.32,53.92,26.13,53.77,26Z"/></svg>