<?xml version="1.0" encoding="utf-8"?>
<!-- Generator: Adobe Illustrator 21.0.2, SVG Export Plug-In . SVG Version: 6.00 Build 0)  -->
<svg version="1.1" id="Layer_1" xmlns="http://www.w3.org/2000/svg" xmlns:xlink="http://www.w3.org/1999/xlink" x="0px" y="0px"
	 viewBox="0 0 409.1 163.2" style="enable-background:new 0 0 409.1 163.2;" xml:space="preserve">
<style type="text/css">
	.st0{fill:#527EBF;}
	.st1{fill:#F16351;}
	.st2{fill:#FFFFFF;}
	.st3{fill:#FDC56D;}
</style>
<g>
	<path class="st0" d="M105.8,33H46.4c-18,0-32.6,14.6-32.6,32.6v59.4c0,18,14.6,32.6,32.6,32.6h92v-92C138.4,47.6,123.8,33,105.8,33
		z"/>
</g>
<g>
	<path class="st1" d="M360.6,5.5H187.7C168.5,5.5,153,21,153,40.2v117.5h207.6c19.2,0,34.7-15.5,34.7-34.7V40.2
		C395.3,21,379.8,5.5,360.6,5.5z"/>
</g>
<g>
	<g>
		<path class="st2" d="M199.2,49.6c0.6,0.3-0.5,28.1-0.5,28.1s22.9-28.4,23.7-28.4c0.8,0,13.9,3.9,14,5c0.1,1-18.2,24.6-18.2,24.6
			c4.6,6.4,18.4,31.5,18.9,33.3c-0.1,0.8-12.6,5.4-15.6,4.6c-1.3-1.1-13.3-23.2-15.2-26.5c-0.9,1-7,7.9-7,7.9l0.1,17.5
			c-1.7,0.5-15.5,0.8-16.2,0.3s-2.1-64.6-0.8-66C183.5,48.8,198.7,49.4,199.2,49.6z"/>
	</g>
	<g>
		<path class="st2" d="M288.2,115.7c0.8,0.5-36.7,0.7-44.2-0.1c-0.5-7.4,0-53.1,0.6-65.8c8.7-0.6,43.6-0.8,44.6-0.3
			c0.7,1.7,0.7,11.2,0.2,14.3c-2.6,0.3-21.4,0.4-29.1,0.1l0.2,11.5c8.3-0.1,21.3,0.1,21.9,0.6c1,0.8,0.3,13.2,0.3,13.5
			c0,0.5-13.3,0.5-22.2,0.2c0,4.2,0,8.7-0.1,12c8.5-0.2,25.1-0.3,27.7-0.1C288.8,104.7,288.6,114.1,288.2,115.7z"/>
	</g>
	<g>
		<path class="st2" d="M334.3,93.2c3.6-15,10.9-41.8,12.6-43.3c0.9-0.9,14.3-1,16.2-0.6c0.7,0.4,9.9,61.4,9.9,64.9
			c-1.1,1.8-15.6,3-15.8,2.3c-0.5-2.3-3.7-28.9-5-41h-0.4c-2.7,10.9-8.9,33.7-11.2,40.2c-1.5,0.6-13,0.6-13.5-0.2
			c-1.1-2.5-8.3-30.5-10.5-40.2h-0.4c-1.5,10.6-4.5,35.3-5.8,40.8c-3,0.3-15.6-1.1-15.7-2.2c0.4-4.9,9.9-60.1,11.1-63.9
			c0.6-1.6,13.5-1.3,15.6-0.8c1.7,2.6,9.5,30.5,12.5,44.1H334.3z"/>
	</g>
</g>
<g>
	<path class="st3" d="M38,74.8h-4.6V71h11.1v3.9h-1.7v16.3H38V74.8z"/>
	<path class="st3" d="M55.2,71c5.5,0,5.9,3.6,5.9,8.7v11.5h-4.8l0-11.5c0-3,0-4.8-1.9-4.8h-1.6v16.3h-4.8V71H55.2z"/>
	<path class="st3" d="M74.7,91.1l-5.1-10.7c-0.5,0-0.5,0.7-0.5,2v8.8h-4.7v-8.4c0-2.5,1-4.8,3.9-5.1L65.1,71h4.7L74.5,81
		c0.6-0.1,0.7-0.6,0.7-2.3V71h4.6v7.1c0,3.3-0.8,5.3-4,5.8l3.6,7.3H74.7z"/>
	<path class="st3" d="M97.7,91.1h-4.8l3.9-16.3h-5.9v-8h4.6V71h7.1L97.7,91.1z"/>
	<path class="st3" d="M109,71c4.5,0,6.2,1.6,6.2,7v6.1c0,5.5-1.6,7-6.2,7h-4.1v-3.9h2.9c1.8,0,2.5-0.2,2.5-3.1v-6.1
		c0-2.1-0.5-3.3-2.3-3.3h-3.1V71H109z"/>
	<path class="st2" d="M41.5,102.6v20.2h-4.9v-20.2H41.5z"/>
	<path class="st2" d="M51.2,118.9h2v-9.1c0-2.3,0.1-3.4-1.8-3.4h-0.6l-2.3,16.3h-4.7l2.4-16.3h-1.5v-3.9h7.5c4.5,0,5.7,2,5.7,8.6
		v11.6h-6.8V118.9z"/>
	<path class="st2" d="M66.2,102.6v20.2h-4.9v-20.2H66.2z"/>
	<path class="st2" d="M82.6,114.1c0,5.2-0.3,8.7-5.8,8.7h-0.9v-3.9h0.4c1.5,0,1.5-1.2,1.5-3.2v-9.3h-8.1v-3.9h12.9V114.1z
		 M69.7,109.9h4.7v17.8h-4.7V109.9z"/>
	<path class="st2" d="M92.1,118.9h2v-9.1c0-2.3,0.1-3.4-1.8-3.4h-0.6l-2.3,16.3h-4.7l2.4-16.3h-1.5v-3.9h7.5c4.5,0,5.7,2,5.7,8.6
		v11.6h-6.8V118.9z"/>
	<path class="st2" d="M108.1,118.9h2v-9.1c0-2.3,0.1-3.4-1.8-3.4h-0.6l-2.3,16.3h-4.7l2.4-16.3h-1.5v-3.9h7.5c4.5,0,5.7,2,5.7,8.6
		v11.6h-6.8V118.9z"/>
</g>
</svg>
