<svg id="Layer_1" data-name="Layer 1" xmlns="http://www.w3.org/2000/svg" viewBox="0 0 24 22"><defs><style>.cls-1{fill:#527ebf;}</style></defs><title>Sign_Out_Icon</title><path class="cls-1" d="M4,11.5A1.5,1.5,0,0,1,5.5,10H14V.5a.5.5,0,0,0-.5-.5H.5A.5.5,0,0,0,0,.5v21a.5.5,0,0,0,.5.5h13a.5.5,0,0,0,.5-.5V13H5.5A1.5,1.5,0,0,1,4,11.5Z"/><path class="cls-1" d="M24,11.31a.5.5,0,0,0-.11-.16l-5-5a.5.5,0,0,0-.71.71L22.29,11H5.5a.5.5,0,0,0,0,1H22.29l-4.15,4.15a.5.5,0,1,0,.71.71l5-5a.5.5,0,0,0,.11-.54Z"/></svg>