<svg id="Layer_1" data-name="Layer 1" xmlns="http://www.w3.org/2000/svg" viewBox="0 0 24 18"><defs><style>.cls-1{fill:#527ebf;}</style></defs><title>Contact_Icon</title><path class="cls-1" d="M21.42,0H2.58A2.58,2.58,0,0,0,0,2.58V15.42A2.58,2.58,0,0,0,2.58,18H21.42A2.58,2.58,0,0,0,24,15.42V2.58A2.58,2.58,0,0,0,21.42,0ZM20.29,12a.72.72,0,0,1-.76,1.22L14,9.74,12.46,11a.72.72,0,0,1-.91,0L10,9.74,4.47,13.2A.72.72,0,1,1,3.71,12l5.13-3.2L3.64,4.53a.72.72,0,0,1,.91-1.11L12,9.51l7.45-6.1a.72.72,0,1,1,.91,1.11l-5.2,4.26Z"/></svg>