<svg id="Layer_1" data-name="Layer 1" xmlns="http://www.w3.org/2000/svg" viewBox="0 0 25 25"><defs><style>.cls-1{fill:#527ebc;}</style></defs><title>Profile_Icon</title><path class="cls-1" d="M12.5,0A12.48,12.48,0,1,0,25,12.5,12.51,12.51,0,0,0,12.5,0Zm8.06,20.69c-.68-1-2.46-1.64-4.88-2.53l-.92-.34V16a3.19,3.19,0,0,0,1.12-2.2,1.34,1.34,0,0,0,.38-.72,1.66,1.66,0,0,0-.31-1.53l.07-.17a6.21,6.21,0,0,0,.61-3.13C16.36,7,14.51,6.5,13,6.5c-1.16,0-2.58.29-3,1.1a1.41,1.41,0,0,0-1,.55c-.65.88-.18,2.44.08,3.28l0,.12a1.64,1.64,0,0,0-.33,1.54,1.34,1.34,0,0,0,.38.72A3.19,3.19,0,0,0,10.25,16v1.81l-.93.34c-2.42.89-4.2,1.55-4.88,2.53a11.5,11.5,0,1,1,16.12,0Z"/></svg>