<svg id="Layer_1" data-name="Layer 1" xmlns="http://www.w3.org/2000/svg" viewBox="0 0 20 24"><defs><style>.cls-1{fill:#527ebf;}</style></defs><title>Download_BTN</title><path class="cls-1" d="M8.14,14a14.07,14.07,0,0,1,1.34-.64,13.24,13.24,0,0,1-1.29-.92A14,14,0,0,1,8.14,14Z"/><path class="cls-1" d="M4.9,17.92c-.13.16-.17.3-.12.42a.5.5,0,0,0,.83,0A7.67,7.67,0,0,0,6.69,16.2,11.46,11.46,0,0,0,4.9,17.92Z"/><path class="cls-1" d="M6.12,7.43a.47.47,0,0,0-.36.25.5.5,0,0,0,0,.53A14.51,14.51,0,0,0,6.89,9.77,14.46,14.46,0,0,0,6.3,7.62C6.23,7.43,6.15,7.43,6.12,7.43Z"/><path class="cls-1" d="M14.68,13.43a10.8,10.8,0,0,0-2.5.19,11.91,11.91,0,0,0,2.66.65h.07a.31.31,0,0,0,.3-.34A.49.49,0,0,0,14.68,13.43Z"/><path class="cls-1" d="M19.85,6.15l-6-6A.5.5,0,0,0,13.5,0H.5A.5.5,0,0,0,0,.5v23a.5.5,0,0,0,.5.5h19a.5.5,0,0,0,.5-.5V6.5A.5.5,0,0,0,19.85,6.15Zm-5.14,9.13A13,13,0,0,1,10.62,14,13,13,0,0,0,8,15.31a9.13,9.13,0,0,1-1.54,3.61,1.51,1.51,0,0,1-1.23.64,1.47,1.47,0,0,1-1.31-.8,1.36,1.36,0,0,1,.24-1.48A13.38,13.38,0,0,1,7,14.71a13.09,13.09,0,0,0,.09-3.16,14.94,14.94,0,0,1-2.2-2.82,1.49,1.49,0,0,1-.05-1.54,1.46,1.46,0,0,1,1.23-.76,1.19,1.19,0,0,1,1.12.84,16.65,16.65,0,0,1,.86,3.81A12.16,12.16,0,0,0,10.7,13a12,12,0,0,1,4-.53A1.48,1.48,0,0,1,16.21,14,1.29,1.29,0,0,1,14.71,15.27ZM13,7V1l6,6Z"/></svg>