<svg id="Layer_1" data-name="Layer 1" xmlns="http://www.w3.org/2000/svg" viewBox="0 0 28.44 24.09"><defs><style>.cls-1{fill:#527ebf;}</style></defs><title>Print_BTN</title><path class="cls-1" d="M24.18,7.11H4.27A4.27,4.27,0,0,0,0,11.38v8.53H5.69V23.4a.69.69,0,0,0,.69.69H22.06a.69.69,0,0,0,.69-.69V19.91h5.69V11.38A4.27,4.27,0,0,0,24.18,7.11ZM21.42,22.4a.36.36,0,0,1-.36.36H7.39A.36.36,0,0,1,7,22.4V15.64H21.42Zm2.76-9.6a1.42,1.42,0,1,1,1.42-1.42A1.43,1.43,0,0,1,24.18,12.8Z"/><rect class="cls-1" x="5.69" width="17.07" height="5.69"/></svg>