<svg id="Layer_1" data-name="Layer 1" xmlns="http://www.w3.org/2000/svg" viewBox="0 0 27.43 16"><defs><style>.cls-1{fill:#527ebf;}</style></defs><title>Views_Icon</title><path class="cls-1" d="M13.72,4.57a.69.69,0,1,0,0,1.37A2.06,2.06,0,1,1,11.66,8a.69.69,0,0,0-1.37,0,3.43,3.43,0,1,0,3.43-3.43Z"/><path class="cls-1" d="M27.31,7.65C27.06,7.33,21.16,0,13.72,0S.37,7.33.12,7.65a.57.57,0,0,0,0,.71C.37,8.67,6.27,16,13.72,16S27.06,8.67,27.31,8.35A.57.57,0,0,0,27.31,7.65Zm-13.59,5.5A5.14,5.14,0,1,1,18.86,8,5.15,5.15,0,0,1,13.72,13.14Z"/></svg>