<svg id="Layer_1" data-name="Layer 1" xmlns="http://www.w3.org/2000/svg" viewBox="0 0 17.81 14.49"><defs><style>.cls-1{fill:#00c7ff;fill-rule:evenodd;}</style></defs><title>Twiter_BTN</title><path class="cls-1" d="M17.79,1.73a7,7,0,0,1-2,.55,3.74,3.74,0,0,0,1.57-2h0l0,0a7.4,7.4,0,0,1-2.13.82.19.19,0,0,1-.19-.06,3.56,3.56,0,0,0-3.2-1A3.51,3.51,0,0,0,9.24,1.71,3.54,3.54,0,0,0,8.71,4.1c0,.13,0,.26.06.4A10.47,10.47,0,0,1,1.22.68,3.62,3.62,0,0,0,.83,3.33,3.68,3.68,0,0,0,2.33,5.55,3.62,3.62,0,0,1,.7,5.11a3.56,3.56,0,0,0,.54,1.94A3.65,3.65,0,0,0,3.62,8.73l-.05,0A3.62,3.62,0,0,1,2,8.8a3.67,3.67,0,0,0,3.4,2.54,7.32,7.32,0,0,1-1.74,1,7.41,7.41,0,0,1-3.66.5l.09.06a10.34,10.34,0,0,0,5.85,1.57,10.93,10.93,0,0,0,2-.24,9.78,9.78,0,0,0,5-2.8,10.5,10.5,0,0,0,2-2.88,10.76,10.76,0,0,0,.94-3.26A10.13,10.13,0,0,0,16,3.68a.12.12,0,0,1,.06-.12A7.19,7.19,0,0,0,17.39,2.3c.15-.18.28-.37.42-.55Z"/></svg>