<svg id="Layer_1" data-name="Layer 1" xmlns="http://www.w3.org/2000/svg" viewBox="0 0 13.16 17"><defs><style>.cls-1{fill:#ff3635;fill-rule:evenodd;}</style></defs><title>Pinterest_BTN</title><path class="cls-1" d="M13.11,4.85A5.8,5.8,0,0,0,7.77.05a7.1,7.1,0,0,0-6.85,3A5.3,5.3,0,0,0,.88,9,2.75,2.75,0,0,0,2,9.82a.32.32,0,0,0,.48-.21c.08-.3.15-.61.23-.91s-.07-.31-.22-.51c-1.21-1.52-.6-4.84,2.08-6.07,2.34-1.08,6-.36,6.22,3,.1,1.68-.43,4.06-1.8,5s-3.21,0-2.84-1.44c.45-1.78,1-3,.81-3.91-.36-1.49-2.41-1.35-3,.46a3.73,3.73,0,0,0,.1,2.48A.37.37,0,0,1,4.1,8c-1.26,5.3-1.38,5.63-1.41,6.61a13.13,13.13,0,0,0,.14,2.24c0,.08,0,.16.11.18s.13-.06.17-.11a12.66,12.66,0,0,0,1-1.54c.64-1.14.71-1.68,1.34-4.13l0-.13c.1.12.18.24.28.34,1.3,1.32,4.12,1.18,5.86-1A8,8,0,0,0,13.11,4.85Z"/></svg>